<?xml version="1.0" encoding="UTF-8"?>
<!--Generator: Apple Native CoreSVG 326-->
<!DOCTYPE svg
PUBLIC "-//W3C//DTD SVG 1.1//EN"
       "http://www.w3.org/Graphics/SVG/1.1/DTD/svg11.dtd">
<svg version="1.1" xmlns="http://www.w3.org/2000/svg" xmlns:xlink="http://www.w3.org/1999/xlink" viewBox="0 0 206.641 173.34">
 <g>
  <rect height="173.34" opacity="0" width="206.641" x="0" y="0"/>
  <path d="M15.0391 58.7891C29.1016 54.2969 43.6523 51.9531 57.5195 51.9531C75.4883 51.9531 88.6719 54.8828 105.664 54.8828C123.242 54.8828 134.18 42.9688 134.18 27.4414C134.18 11.5234 121.973 0.0976562 106.934 0.0976562C95.8008 0.0976562 86.0352 7.12891 81.9336 16.4062C80.3711 19.6289 80.957 23.3398 84.375 25.0977C87.5 26.6602 91.3086 25.6836 93.3594 21.7773C95.5078 16.7969 100.781 12.8906 106.934 12.8906C115.039 12.8906 121.387 18.5547 121.387 27.4414C121.387 36.3281 115.234 42.1875 105.664 42.1875C89.4531 42.1875 76.0742 39.2578 57.5195 39.2578C41.6016 39.2578 25.4883 42.0898 11.1328 46.6797C7.03125 47.8516 5.46875 51.3672 6.44531 54.6875C7.42188 58.1055 10.6445 60.0586 15.0391 58.7891ZM167.773 104.492C190.527 104.492 206.641 90.0391 206.641 69.8242C206.641 49.9023 191.309 35.4492 172.266 35.4492C154.59 35.4492 141.504 47.7539 139.16 63.8672C138.574 67.9688 140.82 71.1914 144.336 71.6797C147.949 72.168 151.074 69.9219 151.855 65.332C153.516 55.0781 162.012 48.1445 172.266 48.1445C184.18 48.1445 193.848 57.0312 193.848 69.8242C193.848 82.8125 183.594 91.7969 167.773 91.7969C137.988 91.7969 105.859 74.8047 66.7969 74.8047C46.6797 74.8047 28.3203 78.0273 11.1328 84.082C7.12891 85.5469 5.46875 88.9648 6.44531 92.2852C7.42188 95.7031 10.7422 97.7539 15.0391 96.2891C30.957 90.2344 47.5586 87.5977 66.7969 87.5977C105.762 87.5977 134.863 104.492 167.773 104.492ZM105.762 173.34C120.801 173.34 132.422 162.207 132.422 146.289C132.422 123.242 108.887 110.352 65.5273 110.352C47.3633 110.352 27.7344 113.867 11.1328 119.531C7.12891 120.996 5.46875 124.414 6.44531 127.734C7.42188 131.152 10.7422 133.203 15.0391 131.738C30.5664 126.172 47.9492 123.145 65.5273 123.145C100.977 123.145 119.727 132.031 119.727 146.289C119.727 155.176 113.477 160.645 105.762 160.645C98.0469 160.645 93.3594 155.469 91.9922 147.266C91.4062 143.652 88.7695 140.625 84.5703 140.918C80.1758 141.211 78.418 144.922 79.0039 148.926C80.7617 162.5 90.8203 173.34 105.762 173.34Z" fill="white" fill-opacity="0.85"/>
 </g>
</svg>
